<svg width="502" height="502" viewBox="0 0 502 502" fill="none" xmlns="http://www.w3.org/2000/svg">
<path d="M501.988 141.578V360.16C501.988 438.32 438.621 501.691 360.457 501.691H141.875C63.707 501.691 0.34375 438.32 0.34375 360.16V141.578C0.34375 63.4102 63.707 0.0507812 141.875 0.0507812H360.457C438.621 0.0507812 501.988 63.4102 501.988 141.578Z" fill="#4561B6"/>
<path d="M199.59 501.691L199.945 322.52H146.473V258.672H199.93V221.441H199.688L199.742 216.121C199.906 199.82 200.793 180.789 206.105 163.211C211.645 144.898 221.285 130.441 235.586 118.988C247.633 109.359 262.285 102.828 277.961 100.129C289.023 98.2188 300.633 97.3008 313.453 97.3008C328.348 97.3008 344.637 98.5586 363.246 101.148L367.785 101.789V161.711L355.359 161.809L336.594 161.941C323.316 162.039 309.422 163.5 297.762 173.441C286.223 183.301 280.172 198.621 280.266 217.762L279.996 252.09L279.949 258.672H362.535L350.277 324.75H281.059L280.801 501.691H199.59Z" fill="white"/>
</svg>
