<svg width="502" height="502" viewBox="0 0 502 502" fill="none" xmlns="http://www.w3.org/2000/svg">
<path d="M502 141.75V360.328C502 438.488 438.629 501.859 360.469 501.859H141.891C63.7188 501.859 0.359375 438.488 0.359375 360.328V141.75C0.359375 63.5781 63.7188 0.210938 141.891 0.210938H360.469C438.629 0.210938 502 63.5781 502 141.75Z" fill="#100F0D"/>
<path fill-rule="evenodd" clip-rule="evenodd" d="M197.031 326.199C192.078 319.719 189.41 311.781 189.422 303.621C189.422 283.012 206.129 266.309 226.75 266.309C230.59 266.309 234.41 266.898 238.07 268.059V222.949C233.789 222.359 229.469 222.109 225.148 222.211V257.32C221.488 256.16 217.672 255.57 213.828 255.57C193.211 255.57 176.5 272.27 176.5 292.879C176.5 307.441 184.852 320.059 197.031 326.199ZM324.422 169.191C315.551 159.512 309.738 147.012 308.48 133.18V127.512H296.23C299.309 145.078 309.828 160.09 324.422 169.191ZM308.48 213.699C325.82 226.09 347.059 233.379 370 233.379V189.25C365.66 189.262 361.328 188.801 357.078 187.898V222.641C334.141 222.641 312.898 215.352 295.559 202.961V293C295.559 338.051 259.02 374.559 213.961 374.559C197.141 374.559 181.512 369.48 168.531 360.77C183.352 375.91 204.012 385.309 226.871 385.309C271.941 385.309 308.48 348.789 308.48 303.75V213.699Z" fill="#ED1752"/>
<path fill-rule="evenodd" clip-rule="evenodd" d="M295.559 202.961C312.898 215.352 334.141 222.641 357.078 222.641V187.898C344.281 185.18 332.941 178.488 324.422 169.191C309.828 160.09 299.309 145.078 296.23 127.512H264.07V303.75C264 324.289 247.32 340.922 226.738 340.922C214.621 340.922 203.852 335.148 197.031 326.199C184.852 320.059 176.5 307.441 176.5 292.879C176.5 272.27 193.211 255.57 213.828 255.57C217.77 255.57 221.578 256.18 225.148 257.32V222.211C180.879 223.121 145.27 259.281 145.27 303.75C145.27 325.941 154.141 346.07 168.531 360.77C181.512 369.48 197.141 374.559 213.961 374.559C259.02 374.559 295.559 338.051 295.559 293V202.961Z" fill="white"/>
<path fill-rule="evenodd" clip-rule="evenodd" d="M225.148 222.211V212.211C221.441 211.699 217.699 211.449 213.961 211.449C168.891 211.449 132.352 247.961 132.352 293C132.352 321.238 146.711 346.129 168.531 360.77C154.141 346.07 145.27 325.941 145.27 303.75C145.27 259.281 180.879 223.121 225.148 222.211ZM296.23 127.512C295.941 125.828 295.711 124.141 295.559 122.441V116.762H251.148V293C251.078 313.551 234.398 330.18 213.828 330.18C207.781 330.18 202.078 328.75 197.031 326.199C203.852 335.148 214.621 340.922 226.738 340.922C247.32 340.922 264 324.289 264.07 303.75V127.512H296.23ZM357.078 187.898V178.512C345.531 178.531 334.211 175.301 324.422 169.191C333.09 178.672 344.512 185.219 357.078 187.898Z" fill="#53C5C8"/>
</svg>
