<svg width="502" height="502" viewBox="0 0 502 502" fill="none" xmlns="http://www.w3.org/2000/svg">
<path d="M501.852 141.578V360.16C501.852 438.32 438.48 501.691 360.32 501.691H141.738C63.5703 501.691 0.199219 438.32 0.199219 360.16V141.578C0.199219 63.4102 63.5703 0.0507812 141.738 0.0507812H360.32C438.48 0.0507812 501.852 63.4102 501.852 141.578Z" fill="#ED1C24"/>
<path d="M220.621 296.48V205.262L299.609 250.871L220.621 296.48ZM396.699 177.68C393.199 164.602 382.898 154.301 369.82 150.801C346.109 144.449 251.031 144.449 251.031 144.449C251.031 144.449 155.941 144.449 132.23 150.801C119.148 154.301 108.852 164.602 105.352 177.68C99 201.391 99 250.871 99 250.871C99 250.871 99 300.34 105.352 324.051C108.852 337.129 119.148 347.441 132.23 350.93C155.941 357.289 251.031 357.289 251.031 357.289C251.031 357.289 346.109 357.289 369.82 350.93C382.898 347.441 393.199 337.129 396.699 324.051C403.059 300.34 403.059 250.871 403.059 250.871C403.059 250.871 403.059 201.391 396.699 177.68Z" fill="white"/>
</svg>
