<svg width="245" height="305" viewBox="0 0 245 305" fill="none" xmlns="http://www.w3.org/2000/svg">
<rect width="256" height="305" rx="24" fill="white"/>
<path d="M22.46 37V23H31.28V24.96H24.62V28.98H30.72V30.94H24.62V35.04H31.38V37H22.46ZM33.6919 37V27.14H35.7119V28.62H36.0319C36.2185 28.22 36.5519 27.8467 37.0319 27.5C37.5119 27.1533 38.2252 26.98 39.1719 26.98C39.9185 26.98 40.5785 27.1467 41.1519 27.48C41.7385 27.8133 42.1985 28.2867 42.5319 28.9C42.8652 29.5 43.0319 30.2267 43.0319 31.08V37H40.9719V31.24C40.9719 30.3867 40.7585 29.76 40.3319 29.36C39.9052 28.9467 39.3185 28.74 38.5719 28.74C37.7185 28.74 37.0319 29.02 36.5119 29.58C36.0052 30.14 35.7519 30.9533 35.7519 32.02V37H33.6919ZM45.5166 32.12V31.82C45.5166 30.78 45.7232 29.8933 46.1366 29.16C46.5632 28.4267 47.1232 27.86 47.8166 27.46C48.5099 27.06 49.2699 26.86 50.0966 26.86C51.0566 26.86 51.7899 27.04 52.2966 27.4C52.8166 27.76 53.1966 28.1467 53.4366 28.56H53.7566V27.14H55.7566V39.02C55.7566 39.62 55.5766 40.1 55.2166 40.46C54.8699 40.82 54.3899 41 53.7766 41H47.1366V39.2H53.1366C53.5232 39.2 53.7166 39 53.7166 38.6V35.46H53.3966C53.2499 35.7 53.0432 35.9467 52.7766 36.2C52.5099 36.4533 52.1566 36.66 51.7166 36.82C51.2899 36.98 50.7499 37.06 50.0966 37.06C49.2699 37.06 48.5032 36.8667 47.7966 36.48C47.1032 36.08 46.5499 35.5133 46.1366 34.78C45.7232 34.0333 45.5166 33.1467 45.5166 32.12ZM50.6566 35.26C51.5499 35.26 52.2832 34.98 52.8566 34.42C53.4432 33.8467 53.7366 33.06 53.7366 32.06V31.88C53.7366 30.8533 53.4499 30.0667 52.8766 29.52C52.3032 28.96 51.5632 28.68 50.6566 28.68C49.7766 28.68 49.0432 28.96 48.4566 29.52C47.8832 30.0667 47.5966 30.8533 47.5966 31.88V32.06C47.5966 33.06 47.8832 33.8467 48.4566 34.42C49.0432 34.98 49.7766 35.26 50.6566 35.26ZM61.8495 37.28C61.1429 37.28 60.5095 37.16 59.9495 36.92C59.4029 36.68 58.9629 36.3267 58.6295 35.86C58.3095 35.3933 58.1495 34.8267 58.1495 34.16C58.1495 33.48 58.3095 32.92 58.6295 32.48C58.9629 32.0267 59.4095 31.6867 59.9695 31.46C60.5429 31.2333 61.1895 31.12 61.9095 31.12H64.9095V30.48C64.9095 29.9067 64.7362 29.4467 64.3895 29.1C64.0429 28.7533 63.5095 28.58 62.7895 28.58C62.0829 28.58 61.5429 28.7467 61.1695 29.08C60.7962 29.4133 60.5495 29.8467 60.4295 30.38L58.5095 29.76C58.6695 29.2267 58.9229 28.7467 59.2695 28.32C59.6295 27.88 60.1029 27.5267 60.6895 27.26C61.2762 26.9933 61.9829 26.86 62.8095 26.86C64.0895 26.86 65.0962 27.1867 65.8295 27.84C66.5629 28.4933 66.9295 29.42 66.9295 30.62V34.68C66.9295 35.08 67.1162 35.28 67.4895 35.28H68.3295V37H66.7895C66.3229 37 65.9429 36.88 65.6495 36.64C65.3562 36.4 65.2095 36.0733 65.2095 35.66V35.6H64.9095C64.8029 35.8 64.6429 36.0333 64.4295 36.3C64.2162 36.5667 63.9029 36.8 63.4895 37C63.0762 37.1867 62.5295 37.28 61.8495 37.28ZM62.1495 35.58C62.9762 35.58 63.6429 35.3467 64.1495 34.88C64.6562 34.4 64.9095 33.7467 64.9095 32.92V32.72H62.0295C61.4829 32.72 61.0429 32.84 60.7095 33.08C60.3762 33.3067 60.2095 33.6467 60.2095 34.1C60.2095 34.5533 60.3829 34.9133 60.7295 35.18C61.0762 35.4467 61.5495 35.58 62.1495 35.58ZM69.6181 32.12V31.82C69.6181 30.78 69.8248 29.8933 70.2381 29.16C70.6648 28.4267 71.2248 27.86 71.9181 27.46C72.6115 27.06 73.3715 26.86 74.1981 26.86C75.1581 26.86 75.8915 27.04 76.3981 27.4C76.9181 27.76 77.2981 28.1467 77.5381 28.56H77.8581V27.14H79.8581V39.02C79.8581 39.62 79.6781 40.1 79.3181 40.46C78.9715 40.82 78.4915 41 77.8781 41H71.2381V39.2H77.2381C77.6248 39.2 77.8181 39 77.8181 38.6V35.46H77.4981C77.3515 35.7 77.1448 35.9467 76.8781 36.2C76.6115 36.4533 76.2581 36.66 75.8181 36.82C75.3915 36.98 74.8515 37.06 74.1981 37.06C73.3715 37.06 72.6048 36.8667 71.8981 36.48C71.2048 36.08 70.6515 35.5133 70.2381 34.78C69.8248 34.0333 69.6181 33.1467 69.6181 32.12ZM74.7581 35.26C75.6515 35.26 76.3848 34.98 76.9581 34.42C77.5448 33.8467 77.8381 33.06 77.8381 32.06V31.88C77.8381 30.8533 77.5515 30.0667 76.9781 29.52C76.4048 28.96 75.6648 28.68 74.7581 28.68C73.8781 28.68 73.1448 28.96 72.5581 29.52C71.9848 30.0667 71.6981 30.8533 71.6981 31.88V32.06C71.6981 33.06 71.9848 33.8467 72.5581 34.42C73.1448 34.98 73.8781 35.26 74.7581 35.26ZM87.4111 37.28C86.4111 37.28 85.5378 37.0733 84.7911 36.66C84.0444 36.2333 83.4578 35.64 83.0311 34.88C82.6178 34.1067 82.4111 33.2133 82.4111 32.2V31.96C82.4111 30.9333 82.6178 30.04 83.0311 29.28C83.4444 28.5067 84.0178 27.9133 84.7511 27.5C85.4978 27.0733 86.3578 26.86 87.3311 26.86C88.2778 26.86 89.1044 27.0733 89.8111 27.5C90.5311 27.9133 91.0911 28.4933 91.4911 29.24C91.8911 29.9867 92.0911 30.86 92.0911 31.86V32.64H84.5111C84.5378 33.5067 84.8244 34.2 85.3711 34.72C85.9311 35.2267 86.6244 35.48 87.4511 35.48C88.2244 35.48 88.8044 35.3067 89.1911 34.96C89.5911 34.6133 89.8978 34.2133 90.1111 33.76L91.8111 34.64C91.6244 35.0133 91.3511 35.4067 90.9911 35.82C90.6444 36.2333 90.1844 36.58 89.6111 36.86C89.0378 37.14 88.3044 37.28 87.4111 37.28ZM84.5311 31.06H89.9911C89.9378 30.3133 89.6711 29.7333 89.1911 29.32C88.7111 28.8933 88.0844 28.68 87.3111 28.68C86.5378 28.68 85.9044 28.8933 85.4111 29.32C84.9311 29.7333 84.6378 30.3133 84.5311 31.06ZM94.5708 37V27.14H96.5908V28.3H96.9108C97.0974 27.9533 97.3974 27.6467 97.8108 27.38C98.2241 27.1133 98.7841 26.98 99.4908 26.98C100.224 26.98 100.811 27.1333 101.251 27.44C101.704 27.7333 102.044 28.1133 102.271 28.58H102.591C102.817 28.1267 103.144 27.7467 103.571 27.44C104.011 27.1333 104.631 26.98 105.431 26.98C106.071 26.98 106.637 27.1133 107.131 27.38C107.624 27.6333 108.017 28.02 108.311 28.54C108.604 29.0467 108.751 29.68 108.751 30.44V37H106.691V30.6C106.691 30 106.524 29.54 106.191 29.22C105.871 28.8867 105.411 28.72 104.811 28.72C104.171 28.72 103.657 28.9267 103.271 29.34C102.884 29.7533 102.691 30.3467 102.691 31.12V37H100.631V30.6C100.631 30 100.464 29.54 100.131 29.22C99.8108 28.8867 99.3508 28.72 98.7508 28.72C98.1108 28.72 97.5974 28.9267 97.2108 29.34C96.8241 29.7533 96.6308 30.3467 96.6308 31.12V37H94.5708ZM116.239 37.28C115.239 37.28 114.366 37.0733 113.619 36.66C112.873 36.2333 112.286 35.64 111.859 34.88C111.446 34.1067 111.239 33.2133 111.239 32.2V31.96C111.239 30.9333 111.446 30.04 111.859 29.28C112.273 28.5067 112.846 27.9133 113.579 27.5C114.326 27.0733 115.186 26.86 116.159 26.86C117.106 26.86 117.933 27.0733 118.639 27.5C119.359 27.9133 119.919 28.4933 120.319 29.24C120.719 29.9867 120.919 30.86 120.919 31.86V32.64H113.339C113.366 33.5067 113.653 34.2 114.199 34.72C114.759 35.2267 115.453 35.48 116.279 35.48C117.053 35.48 117.633 35.3067 118.019 34.96C118.419 34.6133 118.726 34.2133 118.939 33.76L120.639 34.64C120.453 35.0133 120.179 35.4067 119.819 35.82C119.473 36.2333 119.013 36.58 118.439 36.86C117.866 37.14 117.133 37.28 116.239 37.28ZM113.359 31.06H118.819C118.766 30.3133 118.499 29.7333 118.019 29.32C117.539 28.8933 116.913 28.68 116.139 28.68C115.366 28.68 114.733 28.8933 114.239 29.32C113.759 29.7333 113.466 30.3133 113.359 31.06ZM123.399 37V27.14H125.419V28.62H125.739C125.926 28.22 126.259 27.8467 126.739 27.5C127.219 27.1533 127.932 26.98 128.879 26.98C129.626 26.98 130.286 27.1467 130.859 27.48C131.446 27.8133 131.906 28.2867 132.239 28.9C132.572 29.5 132.739 30.2267 132.739 31.08V37H130.679V31.24C130.679 30.3867 130.466 29.76 130.039 29.36C129.612 28.9467 129.026 28.74 128.279 28.74C127.426 28.74 126.739 29.02 126.219 29.58C125.712 30.14 125.459 30.9533 125.459 32.02V37H123.399ZM139.13 37C138.53 37 138.05 36.82 137.69 36.46C137.343 36.1 137.17 35.62 137.17 35.02V28.88H134.45V27.14H137.17V23.88H139.23V27.14H142.17V28.88H139.23V34.66C139.23 35.06 139.417 35.26 139.79 35.26H141.85V37H139.13Z" fill="#434343"/>
<line x1="21" y1="61.8684" x2="234.053" y2="61.8684" stroke="#434343" stroke-opacity="0.3"/>
<path d="M25.7868 275.579V265.779H26.9628V274.641H31.5268V275.579H25.7868ZM35.6617 275.747C35.1203 275.747 34.6443 275.64 34.2337 275.425C33.8323 275.21 33.5197 274.879 33.2957 274.431C33.081 273.983 32.9737 273.423 32.9737 272.751V268.523H34.1497V272.625C34.1497 273.325 34.3037 273.852 34.6117 274.207C34.9197 274.562 35.3537 274.739 35.9137 274.739C36.3057 274.739 36.6603 274.646 36.9777 274.459C37.295 274.263 37.5423 273.988 37.7197 273.633C37.9063 273.269 37.9997 272.826 37.9997 272.303V268.523H39.1757V275.579H38.1117L38.0417 274.347C37.827 274.786 37.5097 275.131 37.0897 275.383C36.6697 275.626 36.1937 275.747 35.6617 275.747ZM41.1251 275.579V268.523H42.1891L42.2451 269.755C42.4691 269.316 42.7864 268.976 43.1971 268.733C43.6171 268.481 44.0931 268.355 44.6251 268.355C45.1757 268.355 45.6517 268.467 46.0531 268.691C46.4544 268.906 46.7671 269.237 46.9911 269.685C47.2151 270.124 47.3271 270.684 47.3271 271.365V275.579H46.1511V271.491C46.1511 270.782 45.9924 270.25 45.6751 269.895C45.3671 269.54 44.9284 269.363 44.3591 269.363C43.9671 269.363 43.6171 269.461 43.3091 269.657C43.0011 269.844 42.7537 270.119 42.5671 270.483C42.3897 270.838 42.3011 271.281 42.3011 271.813V275.579H41.1251Z" fill="black"/>
<path d="M85.8395 275.579V265.779H87.2115L90.6695 272.625L94.1415 265.779H95.5275V275.579H94.3515V267.879L91.1175 274.207H90.2355L87.0155 267.907V275.579H85.8395ZM99.837 275.747C99.2676 275.747 98.7916 275.649 98.409 275.453C98.0263 275.248 97.7416 274.982 97.555 274.655C97.3683 274.319 97.275 273.955 97.275 273.563C97.275 273.087 97.3963 272.686 97.639 272.359C97.891 272.023 98.241 271.771 98.689 271.603C99.1463 271.426 99.683 271.337 100.299 271.337H102.161C102.161 270.898 102.091 270.534 101.951 270.245C101.82 269.946 101.624 269.722 101.363 269.573C101.111 269.424 100.794 269.349 100.411 269.349C99.963 269.349 99.5756 269.461 99.249 269.685C98.9223 269.909 98.7216 270.24 98.647 270.679H97.443C97.499 270.175 97.667 269.755 97.947 269.419C98.2363 269.074 98.6003 268.812 99.039 268.635C99.4776 268.448 99.935 268.355 100.411 268.355C101.064 268.355 101.606 268.476 102.035 268.719C102.474 268.952 102.8 269.284 103.015 269.713C103.23 270.133 103.337 270.632 103.337 271.211V275.579H102.287L102.217 274.333C102.124 274.529 102.002 274.716 101.853 274.893C101.713 275.061 101.545 275.21 101.349 275.341C101.153 275.462 100.929 275.56 100.677 275.635C100.434 275.71 100.154 275.747 99.837 275.747ZM100.019 274.753C100.346 274.753 100.64 274.688 100.901 274.557C101.172 274.417 101.4 274.23 101.587 273.997C101.774 273.754 101.914 273.488 102.007 273.199C102.11 272.91 102.161 272.606 102.161 272.289V272.247H100.397C99.9396 272.247 99.571 272.303 99.291 272.415C99.011 272.518 98.8103 272.667 98.689 272.863C98.5676 273.05 98.507 273.264 98.507 273.507C98.507 273.759 98.563 273.978 98.675 274.165C98.7963 274.352 98.969 274.496 99.193 274.599C99.4263 274.702 99.7016 274.753 100.019 274.753ZM105.156 275.579V268.523H106.22L106.304 269.867C106.463 269.55 106.664 269.279 106.906 269.055C107.158 268.831 107.457 268.658 107.802 268.537C108.157 268.416 108.558 268.355 109.006 268.355V269.587H108.572C108.274 269.587 107.989 269.629 107.718 269.713C107.448 269.788 107.205 269.914 106.99 270.091C106.785 270.268 106.622 270.511 106.5 270.819C106.388 271.118 106.332 271.491 106.332 271.939V275.579H105.156Z" fill="black"/>
<path d="M147.471 275.579V265.779H148.843L152.301 272.625L155.773 265.779H157.159V275.579H155.983V267.879L152.749 274.207H151.867L148.647 267.907V275.579H147.471ZM159.285 275.579V268.523H160.461V275.579H159.285ZM159.873 267.025C159.639 267.025 159.443 266.95 159.285 266.801C159.135 266.642 159.061 266.446 159.061 266.213C159.061 265.98 159.135 265.793 159.285 265.653C159.443 265.504 159.639 265.429 159.873 265.429C160.097 265.429 160.288 265.504 160.447 265.653C160.605 265.793 160.685 265.98 160.685 266.213C160.685 266.446 160.605 266.642 160.447 266.801C160.288 266.95 160.097 267.025 159.873 267.025ZM165.63 275.747C164.967 275.747 164.379 275.593 163.866 275.285C163.362 274.977 162.965 274.548 162.676 273.997C162.386 273.437 162.242 272.788 162.242 272.051C162.242 271.304 162.382 270.656 162.662 270.105C162.951 269.554 163.352 269.125 163.866 268.817C164.388 268.509 164.986 268.355 165.658 268.355C166.348 268.355 166.932 268.509 167.408 268.817C167.893 269.125 168.262 269.531 168.514 270.035C168.775 270.53 168.906 271.076 168.906 271.673C168.906 271.766 168.906 271.864 168.906 271.967C168.906 272.07 168.901 272.186 168.892 272.317H163.124V271.407H167.758C167.73 270.763 167.515 270.259 167.114 269.895C166.722 269.531 166.227 269.349 165.63 269.349C165.228 269.349 164.855 269.442 164.51 269.629C164.174 269.806 163.903 270.072 163.698 270.427C163.492 270.772 163.39 271.206 163.39 271.729V272.121C163.39 272.7 163.492 273.185 163.698 273.577C163.912 273.969 164.188 274.263 164.524 274.459C164.869 274.655 165.238 274.753 165.63 274.753C166.124 274.753 166.53 274.646 166.848 274.431C167.174 274.207 167.408 273.908 167.548 273.535H168.71C168.598 273.955 168.402 274.333 168.122 274.669C167.842 275.005 167.492 275.271 167.072 275.467C166.661 275.654 166.18 275.747 165.63 275.747Z" fill="black"/>
<path d="M210.497 275.747C209.909 275.747 209.4 275.635 208.971 275.411C208.551 275.187 208.224 274.865 207.991 274.445C207.767 274.025 207.655 273.526 207.655 272.947H208.845C208.845 273.274 208.896 273.572 208.999 273.843C209.111 274.104 209.284 274.314 209.517 274.473C209.76 274.622 210.082 274.697 210.483 274.697C210.875 274.697 211.183 274.622 211.407 274.473C211.64 274.324 211.804 274.123 211.897 273.871C212 273.61 212.051 273.316 212.051 272.989V265.779H213.227V272.989C213.227 273.866 212.984 274.548 212.499 275.033C212.023 275.509 211.356 275.747 210.497 275.747ZM217.819 275.747C217.277 275.747 216.801 275.64 216.391 275.425C215.989 275.21 215.677 274.879 215.453 274.431C215.238 273.983 215.131 273.423 215.131 272.751V268.523H216.307V272.625C216.307 273.325 216.461 273.852 216.769 274.207C217.077 274.562 217.511 274.739 218.071 274.739C218.463 274.739 218.817 274.646 219.135 274.459C219.452 274.263 219.699 273.988 219.877 273.633C220.063 273.269 220.157 272.826 220.157 272.303V268.523H221.333V275.579H220.269L220.199 274.347C219.984 274.786 219.667 275.131 219.247 275.383C218.827 275.626 218.351 275.747 217.819 275.747ZM226.376 275.747C225.714 275.747 225.126 275.593 224.612 275.285C224.108 274.977 223.712 274.548 223.422 273.997C223.133 273.437 222.988 272.788 222.988 272.051C222.988 271.304 223.128 270.656 223.408 270.105C223.698 269.554 224.099 269.125 224.612 268.817C225.135 268.509 225.732 268.355 226.404 268.355C227.095 268.355 227.678 268.509 228.154 268.817C228.64 269.125 229.008 269.531 229.26 270.035C229.522 270.53 229.652 271.076 229.652 271.673C229.652 271.766 229.652 271.864 229.652 271.967C229.652 272.07 229.648 272.186 229.638 272.317H223.87V271.407H228.504C228.476 270.763 228.262 270.259 227.86 269.895C227.468 269.531 226.974 269.349 226.376 269.349C225.975 269.349 225.602 269.442 225.256 269.629C224.92 269.806 224.65 270.072 224.444 270.427C224.239 270.772 224.136 271.206 224.136 271.729V272.121C224.136 272.7 224.239 273.185 224.444 273.577C224.659 273.969 224.934 274.263 225.27 274.459C225.616 274.655 225.984 274.753 226.376 274.753C226.871 274.753 227.277 274.646 227.594 274.431C227.921 274.207 228.154 273.908 228.294 273.535H229.456C229.344 273.955 229.148 274.333 228.868 274.669C228.588 275.005 228.238 275.271 227.818 275.467C227.408 275.654 226.927 275.747 226.376 275.747Z" fill="black"/>
<rect x="21" y="118.211" width="30" height="137" rx="15" fill="#8A2BE2"/>
<rect x="82" y="95.2105" width="30" height="160" rx="15" fill="#B172EC"/>
<rect x="143" y="111.211" width="30" height="144" rx="15" fill="#8A2BE2"/>
<rect x="204" y="80.2105" width="30" height="175" rx="15" fill="#B172EC"/>
</svg>
