<svg width="127" height="126" viewBox="0 0 127 126" fill="none" xmlns="http://www.w3.org/2000/svg">
<path d="M62.9253 0.0351189C63.8093 2.45912 64.3743 5.0141 64.9323 7.5671C65.4813 10.0781 65.9883 12.5981 66.5083 15.0891C66.8243 15.3061 67.0243 15.0881 67.2353 14.9661C70.0043 13.3551 72.7693 11.7361 75.5413 10.1291C76.7233 9.44411 77.9163 8.77911 79.1073 8.11111C79.5653 7.85411 80.0173 7.58012 80.4993 7.37512C80.9883 7.16712 81.5063 7.0721 81.9753 7.4381C82.0763 8.7121 82.0703 8.71611 82.7913 9.89211C84.7173 13.0331 86.4083 16.3041 87.8843 19.6721C90.8203 26.3691 94.1673 32.8521 97.7063 39.2471C100.148 43.6601 102.459 48.1451 104.799 52.6131C107.727 58.2041 111.009 63.5891 114.251 68.9971C116.035 71.9741 117.667 75.0291 119.235 78.1251C121.323 82.2491 123.473 86.3441 125.718 90.3851C126.479 91.7551 126.377 92.9681 125.793 94.2571C124.918 96.1881 123.764 97.9411 122.252 99.4361C121.131 100.544 120.021 101.672 118.816 102.685C116.159 104.917 113.361 106.963 110.441 108.848C104.851 112.456 98.8163 115.143 92.6963 117.688C86.9603 120.073 81.0273 121.847 75.1003 123.65C73.1413 124.245 71.1483 124.725 69.1903 125.324C67.6123 125.807 66.0253 125.993 64.3243 125.775C62.9973 120.585 61.6633 115.371 60.3403 110.198C59.8683 109.886 59.4793 110.122 59.0943 110.242C56.4383 111.071 53.8033 111.976 51.1273 112.732C45.7183 114.26 40.2533 115.563 34.7303 116.613C31.3143 117.262 27.8543 117.511 24.3853 117.63C20.8653 117.751 17.3433 117.803 13.8243 117.95C10.9153 118.072 8.05133 117.821 5.21333 117.195C4.44433 117.025 3.65732 116.925 2.90032 116.717C2.19532 116.523 1.49633 116.273 0.834329 115.964C0.0163285 115.583 -0.123674 115.245 0.0883264 114.333C0.979326 110.503 1.85932 106.669 2.79232 102.849C4.40032 96.2671 5.99933 89.6821 7.68333 83.1181C10.0453 73.9071 12.8043 64.8071 15.5153 55.6941C18.3173 46.2761 20.8253 36.7801 22.7623 27.1411C23.4253 23.8391 23.8283 20.5031 24.2163 17.1631C24.3863 15.7031 24.5923 14.2441 24.8593 12.8001C24.9713 12.1941 25.2363 11.6001 25.5253 11.0501C25.7823 10.5621 26.4253 10.4571 26.7053 10.8981C27.2453 11.7461 27.9903 11.6861 28.7893 11.6011C30.5693 11.4121 32.3313 11.1201 34.0323 10.5461C38.6093 9.00311 43.1853 7.45709 47.7523 5.88509C50.3333 4.99609 52.9233 4.12109 55.4593 3.11309C57.8433 2.16509 60.1613 1.0501 62.5113 0.0150993C62.5913 -0.0229007 62.7103 0.0211189 62.9253 0.0351189ZM62.1893 1.64611C60.1473 3.56511 57.9023 4.4651 55.6623 5.3691C55.0783 5.6051 54.4863 5.8231 53.8913 6.0281C49.8713 7.4151 45.8583 8.8261 41.8233 10.1701C39.1353 11.0661 36.4213 11.8881 33.7043 12.6961C31.6193 13.3161 29.4763 13.4851 27.3063 13.3261C27.0023 13.3041 26.6953 13.3231 26.3263 13.3231C26.2573 13.6221 26.1693 13.8661 26.1493 14.1161C26.0243 15.6881 25.9053 17.2601 25.8003 18.8331C25.5983 21.8781 25.1993 24.8971 24.6553 27.8981C23.1343 36.2821 20.9953 44.5181 18.6523 52.7011C16.6573 59.6701 14.5273 66.5991 12.5203 73.5651C8.65432 86.9831 5.53132 100.592 2.12032 114.21C2.36032 114.323 2.57732 114.468 2.81632 114.528C3.52832 114.708 4.24733 114.858 4.96533 115.014C7.80233 115.629 10.6613 115.921 13.5733 115.788C17.3533 115.615 21.1393 115.56 24.9203 115.411C28.2303 115.281 31.5273 114.988 34.7823 114.332C42.2003 112.837 49.5273 111.004 56.7363 108.679C62.0903 106.953 67.3573 105.015 72.5253 102.802C72.8503 102.663 73.1563 102.48 73.5053 102.3C73.3713 101.027 73.1873 99.8331 73.1273 98.6321C72.8433 92.9041 72.0493 87.2291 71.3823 81.5401C71.0033 78.3041 70.5603 75.0721 70.3163 71.8251C69.9293 66.6891 69.6313 61.5451 69.3923 56.4001C69.0763 49.6181 68.2513 42.8951 67.2703 36.1841C66.6173 31.7141 66.0703 27.2281 65.4973 22.7471C65.2243 20.6101 65.0683 18.4561 64.7383 16.3291C64.1583 12.5921 63.4903 8.86911 62.8493 5.14111C62.6653 4.07311 62.4473 3.00911 62.1893 1.64611ZM124.519 92.4721C124.371 92.1711 124.222 91.8371 124.049 91.5161C121.883 87.4921 119.669 83.4931 117.56 79.4391C115.813 76.0801 113.994 72.7691 112.001 69.5491C108.654 64.1431 105.353 58.7111 102.395 53.0751C99.3433 47.2601 96.2243 41.4801 93.1053 35.7011C91.2833 32.3241 89.5113 28.9241 87.9913 25.3981C85.8273 20.3791 83.5683 15.4051 81.0793 10.5391C80.9423 10.2721 80.7653 10.0251 80.6373 9.81811C78.2603 11.1221 75.9583 12.3811 73.6593 13.6461C71.3633 14.9091 69.0643 16.1681 66.8363 17.6451C67.0393 18.9581 66.9763 20.2581 67.5143 21.6141C70.0293 19.9431 72.2003 17.9521 75.0023 16.9831C72.5533 19.0201 70.3973 21.4101 67.4493 22.9021C67.8113 25.5111 68.1293 28.0611 68.5233 30.5991C69.4163 36.3621 70.4113 42.1091 70.9693 47.9201C70.9973 48.2071 71.1373 48.4831 71.2233 48.7601C71.3663 48.7221 71.4223 48.7171 71.4673 48.6931C71.6063 48.6201 71.7463 48.5471 71.8753 48.4601C73.5683 47.3251 75.4323 46.9491 77.4353 47.2281C78.3713 47.3581 79.3113 47.4771 80.2343 47.6751C83.8933 48.4631 86.9783 50.2521 89.4683 53.0561C90.7153 54.4601 91.5563 56.0781 91.9833 57.9031C92.5573 60.3531 92.5793 62.8101 91.8543 65.2281C91.4483 66.5831 90.9773 67.9301 90.3993 69.2191C89.1223 72.0651 87.4953 74.6951 85.2723 76.9191C83.7203 78.4721 81.9203 79.6051 79.7993 80.2191C78.4573 80.6071 77.0993 80.6231 75.7393 80.4051C75.2483 80.3261 74.6933 80.2331 74.4093 79.5931C75.2713 79.2031 76.1633 79.2361 77.0323 79.2141C78.3153 79.1811 79.5223 78.8701 80.6953 78.3781C82.3783 77.6721 83.7673 76.5621 84.9653 75.2121C87.6613 72.1761 89.5903 68.6911 90.6573 64.7861C91.9643 60.0001 90.8643 55.0941 86.1533 51.6851C86.0253 51.5931 85.9003 51.4971 85.7723 51.4051C83.0413 49.4411 79.9213 48.5931 76.6313 48.3161C74.5973 48.1451 72.8193 48.8591 71.2233 50.2791C71.3563 52.1731 71.4913 54.1001 71.6213 55.9611C71.7713 56.0951 71.8393 56.1841 71.9293 56.2321C75.2323 57.9781 78.2593 60.1661 81.4163 62.1451C82.4193 62.7731 83.0133 63.6541 82.9553 64.8751C82.9203 65.6041 82.8243 66.3301 82.7513 67.0941C82.9493 67.3041 83.1653 67.5311 83.3783 67.7611C83.5783 67.9761 83.7743 68.1941 83.9883 68.4281C83.5523 68.7201 83.3133 68.4261 83.0443 68.3201C82.7693 68.2111 82.5783 67.8811 82.2173 68.0031C80.9033 69.7071 80.7893 69.7681 79.8093 69.2371C80.5813 68.7041 80.9983 67.9601 81.2203 66.9631C79.7863 65.6601 78.2663 64.3791 76.6073 63.2711C76.3693 63.1121 76.0133 63.0901 75.7093 63.0781C75.1323 63.0541 74.5523 63.1021 73.9753 63.0821C73.3623 63.0611 72.7503 62.9961 72.0243 62.9421C72.0243 63.2601 72.0153 63.5121 72.0253 63.7631C72.3123 70.5421 73.0763 77.2791 73.8853 84.0101C74.3813 88.1351 74.7763 92.2671 74.8963 96.4191C74.9403 97.9381 74.8023 99.4621 74.7413 100.983C74.7263 101.35 74.6453 101.719 74.6723 102.082C74.6953 102.38 74.8343 102.668 74.9523 103.059C74.5823 103.353 74.2343 103.661 73.8563 103.924C72.3813 104.947 70.7733 105.721 69.1263 106.42C68.6573 106.619 68.2033 106.855 67.7103 107.09C67.8323 107.386 67.9213 107.573 67.9873 107.769C68.6783 109.808 69.3733 111.845 70.0483 113.888C70.2783 114.584 70.3833 115.302 70.1983 116.31C69.6583 115.158 69.1983 114.238 68.7913 113.294C68.3973 112.379 68.0653 111.437 67.6913 110.513C67.3033 109.555 67.3113 108.451 66.6203 107.513C65.1893 108.079 63.7883 108.632 62.3233 109.211C62.4083 109.605 62.4583 109.905 62.5393 110.197C63.3723 113.182 64.2553 116.154 65.0273 119.154C65.4053 120.622 65.5783 122.143 65.8443 123.64C65.8853 123.872 65.9273 124.103 65.9813 124.409C66.3953 124.285 66.6963 124.206 66.9893 124.105C68.0313 123.746 69.0653 123.36 70.1133 123.018C73.4083 121.944 76.6993 120.858 80.0073 119.827C85.3783 118.153 90.5923 116.076 95.7783 113.901C102.896 110.916 109.529 107.128 115.622 102.393C119.133 99.6601 122.363 96.6781 124.519 92.4721ZM78.1333 61.5241C77.1643 60.5481 74.5373 58.7901 71.9043 57.2891C71.7133 58.0861 71.7133 58.0861 71.9193 59.2561C72.9343 59.8441 73.9893 60.4191 75.0043 61.0591C75.5633 61.4121 76.1283 61.5811 76.7803 61.5291C77.1423 61.5001 77.5083 61.5241 78.1333 61.5241ZM78.4503 63.1891C78.4763 63.2821 78.4733 63.4101 78.5343 63.4631C79.3203 64.1511 80.1093 64.8351 80.9133 65.5011C81.0453 65.6101 81.2523 65.6291 81.4353 65.6941C81.8833 63.7331 80.2983 62.6731 78.4503 63.1891ZM72.2083 60.5521C72.7003 61.4991 72.7003 61.4991 73.5763 61.3001C73.0603 61.0171 72.6343 60.7841 72.2083 60.5521Z" fill="#4C1282"/>
<path d="M27.8384 17.9071C28.3724 17.6981 28.8474 17.4971 29.3324 17.3261C32.5994 16.1741 35.8894 15.0821 39.1324 13.8651C43.0154 12.4081 46.8594 10.8511 50.7174 9.32814C52.1374 8.76814 53.5744 8.29114 55.0914 8.05214C55.5404 7.98114 55.9704 7.74412 56.3884 7.54112C57.1014 7.19512 57.8164 6.86412 58.6244 6.84312C58.8634 6.83712 59.1044 6.91013 59.3774 6.95213C59.2834 7.10813 59.2544 7.23113 59.1834 7.26213C58.1774 7.71113 57.1464 8.11012 56.1614 8.60112C55.6244 8.86912 55.1734 8.83211 54.7224 8.53111C46.5014 12.6131 38.1094 16.1641 29.1684 18.4121C29.1384 19.4351 29.0814 20.3731 29.0884 21.3091C29.1214 25.8531 28.4074 30.3081 27.5574 34.7531C26.0184 42.8051 23.9514 50.7321 21.9404 58.6721C20.3034 65.1371 18.5164 71.5601 16.5164 77.9231C15.9814 79.6251 15.5584 81.3621 15.0894 83.0851C14.9374 83.6421 14.8434 84.2191 14.6494 84.7601C13.6544 87.5371 12.9954 90.3951 12.4304 93.2871C12.0894 95.0351 11.5974 96.7611 11.0624 98.4631C10.3514 100.723 9.79736 103.011 9.37336 105.34C9.12936 106.681 8.75136 107.997 8.42036 109.321C8.35936 109.564 8.23236 109.791 8.14636 110.001C7.74236 110.033 7.77936 109.749 7.78736 109.587C7.82336 108.907 7.85236 108.221 7.96836 107.552C8.24636 105.948 8.56236 104.351 8.88336 102.755C9.02836 102.035 9.17836 101.311 9.40136 100.613C10.5364 97.0561 11.4544 93.4481 12.1454 89.7781C12.3394 88.7491 12.6524 87.7421 12.9394 86.7321C13.4274 85.0161 13.9314 83.3041 14.4404 81.5941C15.3994 78.3731 16.3714 75.1561 17.3294 71.9351C17.7184 70.6271 18.0924 69.3141 18.4604 68.0001C18.9134 66.3821 19.3644 64.7641 19.7934 63.1391C20.4904 60.4991 21.2004 57.8621 21.8464 55.2101C23.2264 49.5471 24.6524 43.8941 25.8974 38.2011C26.7044 34.5101 27.3264 30.7711 27.8424 27.0281C28.2004 24.4311 28.2124 21.7881 28.4384 19.1711C28.4884 18.6171 27.9454 18.5281 27.8384 17.9071Z" fill="#4C1282"/>
<path d="M59.4043 58.3351C59.6963 62.9241 58.1073 67.0581 55.3253 70.8021C54.3393 72.1291 53.1113 73.1971 51.6703 73.9911C48.8933 75.5211 45.9833 76.7281 42.8073 77.0851C37.8693 77.6401 33.8183 76.0191 30.8593 71.9461C29.2823 69.7751 28.4513 67.2871 28.0353 64.6681C27.0443 58.4261 28.2613 52.5551 31.1403 46.9871C31.7953 45.7211 32.6063 44.5511 33.6233 43.5521C34.2563 42.9301 34.9353 42.3291 35.6783 41.8511C36.7263 41.1781 37.9223 40.7641 38.8633 39.8791C39.2053 39.5571 39.8193 39.4811 40.3273 39.3921C40.7863 39.3121 41.2723 39.3311 41.7403 39.3711C43.2053 39.4961 44.6683 39.6431 46.1293 39.8021C46.4923 39.8411 46.8553 39.9301 47.2043 40.0411C50.5903 41.1211 53.5313 42.8361 55.5283 45.8961C57.9693 49.6331 59.3843 53.6911 59.4043 58.3351ZM58.2403 58.3831C58.2173 54.8571 57.1483 50.7471 54.7973 46.9861C52.9143 43.9741 50.1473 42.2081 46.8213 41.2041C46.5213 41.1131 46.2083 41.0581 45.8963 41.0181C44.4373 40.8281 42.9753 40.6621 41.5183 40.4611C40.2063 40.2801 39.0113 40.4891 37.9683 41.3621C37.7373 41.5551 37.4403 41.8231 37.1893 41.8071C36.5793 41.7691 36.2043 42.1291 35.7993 42.4401C34.4033 43.5121 33.2973 44.8541 32.4563 46.3841C29.2313 52.2501 28.0233 58.4771 29.2883 65.1011C29.7573 67.5551 30.6683 69.8451 32.2813 71.7971C34.9033 74.9701 38.3273 76.2001 42.3633 75.8531C44.4233 75.6761 46.3473 74.9721 48.2843 74.2881C52.1233 72.9311 54.7643 70.3651 56.4963 66.7071C57.6223 64.3291 58.2733 61.8891 58.2403 58.3831Z" fill="#4C1282"/>
<path d="M68.4854 100.127C68.3854 99.4561 68.2944 98.9971 68.2504 98.5341C67.8884 94.7151 67.5204 90.8971 67.1834 87.0771C66.9524 84.4601 66.6824 81.8421 66.5834 79.2181C66.4154 74.7421 65.7724 70.3311 65.1024 65.9121C64.5514 62.2781 64.1244 58.6251 63.9124 54.9471C63.5314 48.3361 63.1174 41.7261 62.6224 35.1231C62.2184 29.7261 61.6714 24.3401 61.1994 18.9481C61.0704 17.4821 61.0084 16.0101 60.8664 14.5461C60.7044 12.8731 60.4864 11.2061 60.2924 9.53711C60.1974 8.72011 60.0344 7.90312 60.2644 6.88312C60.4994 7.14312 60.6864 7.25912 60.7294 7.41412C60.9814 8.32412 61.2444 9.23511 61.4194 10.1621C61.9194 12.7981 62.1764 15.4651 62.4004 18.1371C62.6104 20.6501 62.8874 23.1581 63.1194 25.6701C63.2834 27.4491 63.4534 29.2291 63.5644 31.0111C63.8464 35.5211 64.0854 40.0351 64.3654 44.5451C64.6544 49.2141 64.8844 53.8891 65.3054 58.5461C65.6264 62.1011 66.2194 65.6311 66.6634 69.1751C66.9374 71.3641 67.2414 73.5531 67.3904 75.7521C67.6874 80.1571 68.0394 84.5551 68.5834 88.9381C68.8614 91.1801 69.0954 93.4281 69.2794 95.6801C69.3694 96.7761 69.3184 97.8851 69.2924 98.9871C69.2824 99.3901 69.1604 99.7901 68.4854 100.127Z" fill="#4C1282"/>
<path d="M66.1853 98.4351C65.9323 98.6821 65.7193 99.0011 65.4203 99.1651C64.0893 99.8961 62.7643 100.649 61.3833 101.274C57.3193 103.113 53.0603 104.446 48.8753 105.971C45.0273 107.373 41.0943 108.478 37.0833 109.299C35.7493 109.572 34.3943 109.742 33.0433 109.924C32.5943 109.985 32.1003 110.093 31.7173 109.69C31.6843 109.342 31.9393 109.235 32.1763 109.171C32.9853 108.952 33.7953 108.731 34.6153 108.563C38.8323 107.7 42.9693 106.544 47.0273 105.113C52.7113 103.109 58.3833 101.073 64.0623 99.0571C64.7473 98.8141 65.4443 98.6061 66.1363 98.3831L66.1853 98.4351Z" fill="#4C1282"/>
<path d="M14.7753 110.119C15.6753 110.408 16.4093 110.282 17.1323 110.244C20.5923 110.063 24.0523 109.857 27.5123 109.681C28.2903 109.641 29.0733 109.686 30.1603 109.695C29.7983 109.994 29.6853 110.159 29.5403 110.196C28.4233 110.478 27.3123 110.878 26.1763 110.973C22.1473 111.309 18.1093 111.585 14.0623 111.351C13.0243 111.291 11.9873 111.066 10.9713 110.826C10.3793 110.686 9.79834 110.413 9.44434 109.874C9.62134 109.403 9.93532 109.471 10.2293 109.59C11.5193 110.114 12.8663 110.218 14.3013 110.206C14.5953 109.158 14.3413 108.113 14.4043 107.085C14.4663 106.09 14.4493 105.09 14.5063 104.094C14.5673 103.046 14.6643 102 14.7653 100.955C14.8663 99.9101 14.9783 98.8661 15.1103 97.8241C15.2353 96.8351 15.3563 95.8431 15.5443 94.8651C15.7353 93.8661 15.6353 92.7971 16.2553 91.5471C16.2553 92.7601 16.3213 93.6431 16.2423 94.5111C16.0613 96.4971 15.7903 98.4751 15.5903 100.459C15.3893 102.443 15.2293 104.432 15.0513 106.418C14.9863 107.15 14.9163 107.882 14.8593 108.614C14.8233 109.079 14.8063 109.544 14.7753 110.119Z" fill="#4C1282"/>
<path d="M62.2503 83.9171C62.4243 88.4771 62.1513 92.9381 62.1013 97.4011C62.1003 97.5321 62.0163 97.6631 61.8713 98.0831C61.4693 93.3911 61.3073 88.9961 61.7633 84.5931C61.7883 84.3561 61.7533 84.0561 62.2503 83.9171Z" fill="#4C1282"/>
<path d="M59.1983 20.8481C58.1023 19.0671 57.6033 13.5671 58.1333 11.4341C58.2683 11.5081 58.4793 11.5541 58.5023 11.6461C58.6393 12.2061 58.7873 12.7711 58.8323 13.3431C58.9953 15.4371 59.1263 17.5341 59.2513 19.6311C59.2743 20.0341 59.2173 20.4421 59.1983 20.8481Z" fill="#4C1282"/>
<path d="M57.1543 19.0801C56.5663 16.6991 56.6073 14.4421 56.6893 11.9401C56.9923 12.2281 57.2093 12.3341 57.2423 12.4801C57.6833 14.4901 57.6463 16.5241 57.4923 18.5601C57.4813 18.6881 57.3363 18.8071 57.1543 19.0801Z" fill="#4C1282"/>
<path d="M18.8373 97.2901C18.5073 100.356 18.1783 103.422 17.8243 106.709C17.4603 105.251 17.4623 104.294 17.7943 101.911C18.0093 100.362 18.0473 98.7801 18.8373 97.2901Z" fill="#4C1282"/>
<path d="M30.5543 21.1701C30.4983 23.8351 29.9703 26.4351 29.3523 29.0671C29.3243 28.9171 29.2833 28.7671 29.2723 28.6151C29.2613 28.4601 29.2653 28.3011 29.2883 28.1471C29.6163 25.9311 29.9453 23.7161 30.2913 21.5031C30.3093 21.3901 30.4893 21.3021 30.5933 21.2021L30.5543 21.1701Z" fill="#4C1282"/>
<path d="M31.6853 20.9411C31.8783 23.0391 31.4423 25.1221 31.3543 27.2291C30.9713 25.7591 31.1053 22.9961 31.6853 20.9411Z" fill="#4C1282"/>
<path d="M20.8173 107.896C20.6523 105.609 20.6483 103.613 21.2793 101.509C21.4123 103.04 21.2193 105.756 20.8173 107.896Z" fill="#4C1282"/>
<path d="M32.8083 25.8311C32.5153 23.8291 32.6183 21.7561 33.0003 20.6451C33.3833 21.4181 33.3403 22.9661 32.8083 25.8311Z" fill="#4C1282"/>
<path d="M59.9673 92.5411C59.8963 93.4181 59.8263 94.2951 59.7553 95.1721C59.7293 95.1761 59.7043 95.1801 59.6783 95.1841C59.6503 94.9411 59.6053 94.6981 59.5993 94.4541C59.5903 94.0911 59.6053 93.7271 59.6153 93.3641C59.6243 93.0461 59.6593 92.7371 59.9913 92.5701L59.9673 92.5411Z" fill="#4C1282"/>
<path d="M59.9923 92.5711C59.9543 92.0731 59.9173 91.5741 59.8643 90.8781C60.0363 91.1481 60.1363 91.2331 60.1283 91.3061C60.0863 91.7161 60.0183 92.1231 59.9633 92.5361C59.9673 92.5411 59.9923 92.5711 59.9923 92.5711Z" fill="#4C1282"/>
<path d="M66.1373 98.3831C66.2393 98.3081 66.3393 98.2291 66.4483 98.1641C66.4613 98.1561 66.5203 98.2261 66.5583 98.2601C66.4343 98.3181 66.3093 98.3771 66.1853 98.4361L66.1373 98.3831Z" fill="#4C1282"/>
<path d="M30.5943 21.2021C30.5893 21.1091 30.5834 21.0161 30.5784 20.9231C30.8434 21.0351 30.5903 21.0891 30.5533 21.1691L30.5943 21.2021Z" fill="#4C1282"/>
<path d="M79.9014 16.9451C80.7094 17.2181 81.0644 17.7981 81.4294 18.3631C82.7164 20.3511 83.8494 22.4261 84.8054 24.5911C86.3744 28.1451 87.8894 31.7241 89.4614 35.2771C92.6284 42.4371 96.0344 49.4831 99.8634 56.3131C102.792 61.5381 105.53 66.8621 108.243 72.1991C110.127 75.9061 112.197 79.4861 114.6 82.8851C116.114 85.0271 117.473 87.2791 118.902 89.4821C119.158 89.8761 119.416 90.2691 119.673 90.6641C119.411 90.8971 119.186 90.7171 118.969 90.5881C118.126 90.0831 117.644 89.2541 117.118 88.4721C115.828 86.5541 114.612 84.5841 113.259 82.7121C111.035 79.6341 109.233 76.3191 107.478 72.9641C104.654 67.5661 101.896 62.1341 98.8764 56.8391C96.1694 52.0931 93.8394 47.1481 91.3934 42.2641C88.7074 36.9011 86.6944 31.2551 84.2684 25.7831C83.0744 23.0911 81.8034 20.4441 80.3574 17.8801C80.1864 17.5791 80.0524 17.2571 79.9014 16.9451Z" fill="#4C1282"/>
<path d="M120.804 92.4161C120.602 93.1041 120.201 93.3721 119.889 93.6761C116.041 97.4191 112.041 100.978 107.386 103.714C102.316 106.694 97.1903 109.575 91.8683 112.086C88.4483 113.699 84.9723 115.195 81.3043 116.155C78.4123 116.912 75.4893 117.554 72.5743 118.223C72.1343 118.324 71.6583 118.478 71.2173 118.198C71.1653 117.851 71.3663 117.717 71.6403 117.636C73.3003 117.144 74.9343 116.529 76.6243 116.18C83.0643 114.85 89.0243 112.264 94.8163 109.267C98.2653 107.483 101.624 105.522 105.004 103.608C108.762 101.48 112.264 98.9862 115.579 96.2162C116.907 95.1072 118.335 94.1171 119.725 93.0831C120.005 92.8751 120.319 92.7141 120.804 92.4161Z" fill="#4C1282"/>
<path d="M75.3323 46.4872C74.6713 45.8482 74.6043 45.2482 74.4543 44.7112C73.2563 40.4192 72.2313 36.0882 71.6423 31.6642C71.4723 30.3902 71.4363 29.1112 71.5613 27.4832C72.0603 28.2232 72.1033 28.7311 72.1893 29.2311C72.6983 32.2261 73.1903 35.2251 73.7423 38.2131C74.1803 40.5821 74.6973 42.9361 75.1733 45.2981C75.2343 45.5991 75.2563 45.9092 75.3323 46.4872Z" fill="#4C1282"/>
<path d="M109.29 91.5571C102.896 78.4891 102.295 77.1391 102.001 75.0591C102.245 75.3851 102.418 75.5611 102.526 75.7701C103.008 76.7021 103.506 77.6281 103.935 78.5851C105.628 82.3681 107.305 86.1581 108.964 89.9551C109.186 90.4621 109.561 90.9791 109.25 91.5951L109.29 91.5571Z" fill="#4C1282"/>
<path d="M77.9273 44.3221C76.4233 41.4331 75.0893 35.0301 75.2953 32.5931C75.3773 32.6061 75.5273 32.6051 75.5333 32.6331C76.3073 36.3281 77.0723 40.0251 77.8343 43.7221C77.8753 43.9201 77.8963 44.1221 77.9273 44.3221Z" fill="#4C1282"/>
<path d="M81.1543 44.7811C79.8913 43.0691 78.2893 37.5121 78.5173 35.5521C78.6413 35.6811 78.7783 35.7671 78.8293 35.8881C79.1143 36.5621 81.0863 44.1601 81.1543 44.7811Z" fill="#4C1282"/>
<path d="M105.831 93.0101C105.009 91.9301 102.365 86.1341 101.792 84.3861C101.667 84.0061 101.603 83.6051 101.687 83.1471C101.832 83.3921 102.01 83.6241 102.118 83.8841C103.377 86.9111 104.863 89.8451 105.831 93.0101Z" fill="#4C1282"/>
<path d="M71.8723 107.591C72.5263 109.951 73.3263 112.238 74.2873 114.549C73.4833 114.082 73.4613 114.092 73.0323 113.11C72.2663 111.354 71.5483 109.582 71.8723 107.591Z" fill="#4C1282"/>
<path d="M74.5213 107.096C74.8143 108.183 74.8223 109.123 75.0543 110.009C75.2863 110.895 75.6363 111.751 75.9823 112.76C74.6013 111.484 74.0453 109.341 74.5213 107.096Z" fill="#4C1282"/>
<path d="M103.551 93.7931C103.408 93.6771 103.189 93.5891 103.136 93.4411C102.955 92.9351 102.831 92.4081 102.686 91.8881L102.655 91.9251C102.786 92.0641 102.973 92.1811 103.039 92.3461C103.23 92.8271 103.373 93.3281 103.535 93.8211L103.551 93.7931Z" fill="#4C1282"/>
<path d="M102.686 91.8881C102.622 91.7051 102.558 91.5231 102.448 91.2091C102.841 91.4721 102.691 91.7051 102.658 91.9201C102.655 91.9251 102.686 91.8881 102.686 91.8881Z" fill="#4C1282"/>
<path d="M103.534 93.8211C103.554 94.0381 103.574 94.2551 103.594 94.4731C103.543 94.4691 103.491 94.4641 103.44 94.4601C103.473 94.2431 103.506 94.0261 103.545 93.8021C103.551 93.7931 103.534 93.8211 103.534 93.8211Z" fill="#4C1282"/>
<path d="M109.251 91.5941C109.384 91.5541 109.54 91.4131 109.601 91.6721C109.606 91.6911 109.533 91.7491 109.53 91.7471C109.451 91.6831 109.376 91.6141 109.295 91.5511C109.29 91.5571 109.251 91.5941 109.251 91.5941Z" fill="#4C1282"/>
<path d="M102.245 90.2661L102.295 90.1571L102.331 90.2751L102.245 90.2661Z" fill="#4C1282"/>
<path d="M49.8673 64.0531C47.1573 62.2011 44.2283 61.0671 41.7323 59.0301C41.2793 59.3601 40.8233 59.6841 40.3753 60.0191C38.1693 61.6721 36.2893 61.0681 34.9903 58.8551C34.3363 57.7401 34.1053 56.8531 33.9263 54.7511C33.4593 54.3881 32.9723 54.0081 32.5203 53.6561C32.5543 53.2151 32.7813 53.1571 33.0683 53.2131C33.4253 53.2821 33.7783 53.3651 34.1643 53.4481C34.5013 52.6941 34.8213 51.9791 35.1713 51.1941C34.8353 50.8681 34.4833 50.5281 34.0833 50.1391C34.7713 49.5351 35.3543 50.1031 35.8943 50.0981C36.7273 49.6361 37.2053 48.6871 38.2443 48.5501C38.1263 49.2881 38.1283 49.2901 37.8403 49.6691C37.6203 49.9601 37.3943 50.2461 37.1743 50.5291C37.8043 51.1271 42.6083 54.1201 44.5373 55.1251C44.9063 55.0251 45.3063 54.9141 45.7093 54.8101C48.8363 53.9971 51.4683 55.4671 52.2023 58.5971C52.4523 59.6611 52.8513 60.4041 53.8193 60.9001C54.4183 61.2071 54.9233 61.6731 55.3153 62.2831C54.9543 62.6711 54.6123 62.4671 54.2913 62.3791C53.6983 62.2171 53.2033 61.7481 52.4743 61.7721C52.2693 62.4351 52.0713 63.0741 51.8853 63.6761C52.2243 64.2781 52.8213 64.4431 53.2493 64.8141C53.6453 65.1571 54.2653 65.3251 54.3343 66.1031C53.0713 66.1621 52.3333 65.0811 51.3013 64.9311C50.4023 65.8061 49.5853 66.6991 48.6633 67.4661C47.9863 68.0291 47.1953 68.4711 46.4103 68.8811C45.7733 69.2131 45.0863 69.1981 44.4923 68.7021C44.3913 68.6181 44.3443 68.4691 44.2593 68.3291C45.6343 68.2491 45.9323 68.1581 46.9643 67.2781C48.0373 66.3631 49.0653 65.3981 49.8673 64.0531ZM50.8953 60.8161C48.6583 59.5131 46.5373 58.2781 44.4063 57.0361C43.5893 57.3871 42.9203 57.8651 42.2833 58.5491C44.8643 60.2271 47.5383 61.6171 50.3383 62.8771C50.8633 62.2511 50.8303 61.5691 50.8953 60.8161ZM40.9133 57.4901C41.6213 57.0381 42.2583 56.6121 42.7803 56.0211C41.0113 54.5791 37.3863 52.3011 36.2863 51.9451C35.8883 52.6121 35.5593 53.3001 35.5963 54.1351C36.5263 54.6851 37.4333 55.1931 38.3113 55.7471C39.1863 56.2981 40.0323 56.8971 40.9133 57.4901ZM35.6103 55.6261C35.6243 56.8111 35.6253 57.0321 35.9803 57.6281C36.2983 58.1621 36.6733 58.6771 37.1023 59.1241C37.4963 59.5341 38.0513 59.5971 38.5583 59.3161C39.0983 59.0171 39.6013 58.6501 40.1523 58.2911C39.9743 58.0871 39.8973 57.9341 39.7743 57.8671C38.4453 57.1411 37.1083 56.4291 35.6103 55.6261ZM46.3813 56.3061C47.8033 57.2531 49.0153 58.0381 50.3943 58.6781C50.0703 56.6601 48.7293 55.8321 46.3813 56.3061Z" fill="#4C1282"/>
</svg>
