<svg width="31" height="91" viewBox="0 0 31 91" fill="none" xmlns="http://www.w3.org/2000/svg">
<path d="M1.45829 2.5851C-1.7611 -0.699457 1.91079 -0.330149 4.03354 1.38031C26.663 21.9196 29.178 60.229 14.2656 85.9486C19.0587 84.4226 23.9001 82.4815 28.7536 81.4156C33.931 84.8572 22.7394 86.3977 20.5727 87.4043C12.7518 89.2117 6.78344 95.6095 7.38905 82.9126C7.92449 80.2194 2.63441 65.6967 8.39787 68.5389C10.1172 73.6173 10.3489 79.5588 10.8033 84.9795C17.4603 75.1854 19.8042 62.9764 19.9757 51.2951C19.9756 51.3212 19.9766 51.3475 19.9766 51.3737C19.9767 51.269 19.9756 51.1652 19.9757 51.0605C19.9759 51.0847 19.9761 51.1089 19.9764 51.1331C19.9758 51.0595 19.9753 50.986 19.9749 50.9114C19.9752 50.9175 19.9745 50.9235 19.975 50.9285C20.6566 33.2198 14.2636 15.0455 1.45829 2.5851Z" fill="#4C1282"/>
</svg>
