<svg width="305" height="190" viewBox="0 0 305 190" fill="none" xmlns="http://www.w3.org/2000/svg">
<path d="M277.41 36.8295C274.256 42.3488 261.894 54.5903 274.812 56.6712C285.757 52.027 292.603 32.7542 300.379 23.58C304.791 18.3916 308.86 9.38138 298.444 7.59417C285.764 4.42172 272.517 1.85833 259.606 0C249.766 7.2416 276.555 11.6911 282.068 13.4907C220.889 23.5553 167.982 58.8883 140.591 107.375C130.167 106.218 119.665 108.949 110.129 112.418C110.307 112.35 110.485 112.282 110.66 112.211C109.615 112.622 108.557 113.005 107.52 113.429C107.57 113.407 107.623 113.389 107.677 113.37C107.613 113.398 107.545 113.42 107.481 113.448C107.509 113.438 107.534 113.426 107.563 113.417C75.4034 126.134 48.9213 148.447 31.2274 174.831C-26.3234 160.614 -85.7665 241.097 -93.9596 283.18C-94.5547 289.206 -88.3966 289.809 -87.4201 283.696C-73.1866 247.661 -26.0312 176.795 25.308 184.2C12.6246 200.842 -2.20052 258.307 33.3585 258.66C66.3444 245.506 64.5554 200.427 41.7083 180.054C58.1763 155.605 82.6557 134.906 112.449 123.018C112.206 123.11 111.967 123.203 111.725 123.296C119.063 120.352 126.889 117.965 135.021 117.582C125.018 138.141 115.952 180.162 147.031 189.194C185.804 180.953 183.103 126.184 152.341 110.557C178.609 64.9672 229.026 32.3863 286.79 23.3729C283.9 27.977 280.546 32.3491 277.41 36.8295ZM42.1609 199.716C48.8144 215.56 48.7538 236.536 32.1433 247.708C14.4493 243.663 26.8618 200.526 35.7177 189.651C38.5223 192.641 40.6142 196.111 42.1609 199.716ZM153.367 124.87C166.881 140.008 169.24 168.681 147.188 178.634C131.244 163.511 138.428 137.226 147.052 120.028C149.579 121.175 151.589 122.968 153.367 124.87Z" fill="#1FC16B"/>
</svg>
