<svg width="81" height="62" viewBox="0 0 81 62" fill="none" xmlns="http://www.w3.org/2000/svg">
<path d="M77.9792 2.14525C79.6768 -2.1292 80.8276 1.3772 80.1244 4.01108C70.5211 33.0237 36.5197 50.8516 6.96307 47.6448C10.301 51.408 14.0379 55.047 16.9797 59.0517C15.9322 65.1797 9.9874 55.5733 8.1889 54.0006C3.36647 47.5837 -4.90149 44.721 6.95106 40.1279C9.63011 39.5257 20.7618 28.8029 20.4998 35.2237C16.5542 38.854 11.2167 41.4743 6.44554 44.0869C18.0973 46.2024 30.2085 43.3961 40.9565 38.8178C40.9326 38.8284 40.909 38.84 40.885 38.8506C40.9808 38.8082 41.0753 38.7652 41.171 38.7228C41.149 38.7328 41.1269 38.7428 41.1049 38.7528C41.1719 38.7225 41.239 38.6922 41.307 38.6616C41.3015 38.6644 41.2958 38.6662 41.2913 38.6686C57.7562 32.1134 71.7791 18.9022 77.9792 2.14525Z" fill="#1FC16B"/>
</svg>
