<svg width="330" height="442" viewBox="0 0 330 442" fill="none" xmlns="http://www.w3.org/2000/svg">
<path d="M-36.0775 169.75C-82.8943 348.352 87.0241 506.532 257.339 413.693C356.554 359.434 364.551 204.695 269.447 142.163C174.279 72.5675 18.4012 135.331 48.8026 264.62C68.1708 341.234 190.788 380.482 232.897 302.819C253.031 266.843 228.615 221.556 190.575 210.947C179.066 208.507 155.566 206.979 153.46 222.287C154.881 229.382 163.732 227.512 169.097 228.031C207.464 227.316 234.423 275.539 204.768 304.198C136.417 365.371 29.4234 264.907 79.8807 189.507C100.919 138.625 162.052 131.101 210.276 140.07C317.398 161.678 350.134 310.697 267.072 379.058C267.125 379.011 267.177 378.963 267.229 378.923C100.614 503.658 -85.0611 313.601 -0.773914 138.785C-0.988664 139.228 -1.21002 139.67 -1.42474 140.113C17.9682 104.61 51.5264 74.3297 91.6981 65.4523C86.6604 71.881 74.4026 128.85 93.0539 108.46C92.9848 108.532 92.9216 108.612 92.8517 108.69C95.2155 105.347 98.1347 102.338 99.8825 98.6046C99.8301 98.7054 99.7834 98.8137 99.7301 98.9211C107.684 82.1401 124.313 62.0669 119.5 43.0478C84.8704 5.09362 3.1943 -28.9881 87.8958 43.36C26.903 56.0003 -22.4274 109.821 -36.0775 169.75Z" fill="#84EBB4"/>
</svg>
