<svg width="53" height="120" viewBox="0 0 53 120" fill="none" xmlns="http://www.w3.org/2000/svg">
<path d="M51.6772 119.298C54.8572 118.827 48.3575 105.353 48.2155 102.232C48.2166 102.237 48.2185 102.242 48.2196 102.247C48.2006 102.186 48.1833 102.124 48.1635 102.062C48.1644 102.064 48.1645 102.067 48.1655 102.068C48.1554 102.035 48.1444 102 48.1343 101.965C48.1424 101.993 48.1513 102.02 48.1594 102.048C43.9203 92.3232 46.6287 77.3396 35.9738 94.5408C33.3627 91.589 30.89 88.3693 29.0027 84.9074C29.0065 84.9152 29.0103 84.9238 29.0141 84.9315C24.1123 75.5564 23.4282 64.8343 25.0126 54.5229C25.0118 54.5256 25.0119 54.5282 25.012 54.5308C25.019 54.4632 25.026 54.3956 25.0339 54.3288C25.0306 54.3551 25.0281 54.3815 25.0256 54.4078C25.0312 54.3481 25.0376 54.2892 25.0441 54.2295C25.0436 54.2392 25.0422 54.2497 25.0409 54.2594C26.8152 41.5139 31.6753 28.7984 40.2059 19.0375C56.5422 7.64955 31.986 14.2674 26.4318 16.9522C27.7496 12.8307 29.2565 8.7351 30.9563 4.765C34.5215 -1.22908 30.9728 -0.633153 26.4703 1.64962C13.9743 6.82986 8.12406 20.2696 3.44966 32.0873C-4.83214 54.9711 3.65757 80.8317 18.0273 99.4145C18.0263 99.4127 18.0245 99.4111 18.0245 99.4111C18.0402 99.4306 18.0567 99.45 18.0723 99.4704C18.0705 99.4687 18.0687 99.4662 18.0677 99.4645C18.0879 99.4891 18.1081 99.5145 18.1283 99.5383C18.1237 99.5323 18.1191 99.5272 18.1145 99.5213C19.9752 102.273 23.0714 104.043 24.8797 106.732L24.8779 106.731C24.8738 106.873 24.8041 107.014 24.6891 107.096C24.7225 107.122 24.7558 107.146 24.79 107.17C24.0496 110.006 16.3778 117.434 20.0077 119.139C30.5191 119.315 41.1811 119.901 51.6772 119.298ZM47.9556 116.607C39.5173 116.562 31.0829 116.3 22.6434 116.338C24.0927 114.638 25.079 112.618 26.1772 110.686C26.1462 110.742 26.1151 110.799 26.0849 110.854C31.6063 103.804 23.5104 103.43 20.3984 97.6884C13.874 89.3088 8.95183 79.7027 5.95265 69.5139C5.95561 69.5225 5.95863 69.5329 5.96072 69.5415C-1.5399 46.63 6.99844 14.9489 28.9261 3.00925C27.022 5.65845 26.3307 8.97098 25.0044 11.9241C25.0068 11.9188 25.0092 11.9125 25.0107 11.9072C18.1662 27.478 31.2982 16.5869 38.8328 16.2266C23.336 33.7467 16.4636 61.1694 24.9778 83.3506C27.5926 88.6791 30.8693 94.6284 35.8051 98.0186C38.989 97.6257 39.7546 93.048 42.1099 91.1633C42.8093 94.4001 43.731 97.5968 44.6833 100.769C44.6752 100.741 44.6662 100.713 44.6581 100.685C46.28 105.968 47.5432 111.359 49.4615 116.549C48.9587 116.577 48.4575 116.6 47.9556 116.607Z" fill="#8A2BE2"/>
</svg>
