<svg width="330" height="476" viewBox="0 0 330 476" fill="none" xmlns="http://www.w3.org/2000/svg">
<path d="M147.557 399.507C184.904 409.017 182.862 358.28 169.948 337.269C149.843 305.045 115.677 281.224 77.7747 275.47C77.6763 239.188 101.362 190.524 143.546 200.323C145.418 242.054 174.281 298.342 221.547 291.616C259.87 252.746 190.097 198.21 154.973 190.268C152.253 145.747 191.662 97.9363 236.163 121.729C224.727 145.654 234.635 184.043 263.948 183.87C301.614 172.94 274.267 127.55 251.891 116.712C273.624 78.5885 303.097 45.333 328.303 9.45836C329.703 23.1702 327.555 37.0534 327.397 50.8025C342.922 70.5045 340.607 24.3543 340.795 16.0833C339.326 -1.20512 345.462 -23.6852 319.8 -9.68198C307.094 -5.50841 294.524 -0.393223 282.068 4.42113C269.827 24.1393 305.705 10.3778 313.888 8.89201C290.117 42.9001 262.174 74.3238 241.725 110.492C189.665 83.8505 142.283 134.029 142.749 187.672C94.8119 179.237 66.0135 232.325 65.6625 274.601C-24.2511 270.976 -47.8617 389.318 9.19357 441.084C-0.779384 453.893 -8.41758 468.294 -18.3415 481.106C-33.6899 483.634 -49.1129 492.237 -64.1436 497.685C-78.0517 514.344 -37.5659 498.279 -31.8704 497.092C-31.9342 497.113 -31.9981 497.135 -32.0619 497.156L-32.0569 497.155C-32.1035 497.171 -32.1501 497.187 -32.1967 497.203C-31.0417 496.825 -29.8843 496.467 -28.7253 496.101C-31.0678 499.903 -33.7337 503.521 -35.75 507.51C-71.6196 512.868 -91.514 528.49 -39.357 520.108C-39.2875 520.284 -39.1992 520.446 -39.1009 520.606C-37.0622 528.794 -43.3806 560.878 -27.4473 551.009C-23.5925 539.74 -27.4781 525.978 -27.5829 514.116C-26.0222 511.916 -24.4446 509.728 -22.8621 507.54C-19.7453 515.582 -23.578 546.755 -8.45648 534.297C-5.8544 520.488 -12.238 506.314 -12.287 492.329C-1.06111 478.764 7.2361 463.166 17.9067 449.185C43.1457 474.16 97.2301 464.875 90.2406 420.505C74.2272 372.473 35.2325 393.548 16.1365 430.188C-31.5872 384.771 -12.2031 282.547 65.8979 286.937C67.6175 337.154 100.701 384.462 147.557 399.507ZM246.412 128.231C258.171 136.293 281.513 157.243 264.693 171.513C244.817 171.344 239.789 144.25 246.412 128.231ZM157.534 204.121C183.072 212.799 234.995 249.644 215.743 280.929C179.443 276.682 158.837 238.149 156.258 203.697C156.686 203.835 157.111 203.977 157.534 204.121ZM26.8382 435.372C82.482 343.202 106.188 494.814 24.8957 438.654C25.5439 437.559 26.1815 436.461 26.8382 435.372ZM101.892 351.928C88.3223 333.872 79.2645 311.277 78.0974 287.981C175.6 299.938 206.203 457.905 101.892 351.928Z" fill="#FFDB43"/>
</svg>
