<svg width="76" height="40" viewBox="0 0 76 40" fill="none" xmlns="http://www.w3.org/2000/svg">
<path d="M72.3844 39.0463C71.7938 40.957 64.1244 35.6843 62.2189 35.3014C62.222 35.3025 62.225 35.3042 62.2281 35.3054C62.1921 35.2879 62.1555 35.2713 62.1196 35.2533L62.1232 35.2551C62.1034 35.2457 62.0832 35.2357 62.0628 35.2262C62.0791 35.2338 62.0947 35.2418 62.111 35.2494C56.5333 31.7219 47.0639 31.968 58.6495 27.0459C57.0818 25.1609 55.3364 23.3355 53.3866 21.8472C53.3909 21.8503 53.3959 21.8534 53.4003 21.8565C48.1002 17.9546 41.5723 16.5184 35.0821 16.5159L35.087 16.5163C35.0448 16.5142 35.0025 16.5121 34.9607 16.5106C34.9772 16.511 34.9937 16.512 35.0101 16.513C34.9729 16.5107 34.9361 16.5092 34.8987 16.5075C34.9047 16.5081 34.9113 16.5082 34.9174 16.5083C26.9126 16.3921 18.634 18.176 11.8243 22.4966C3.27492 31.4627 9.66989 16.9907 11.8468 13.83C9.18777 14.2498 6.5268 14.7885 3.92472 15.4576C-0.0985133 17.0819 0.604022 14.9564 2.43408 12.4042C6.80281 5.21151 15.6205 2.88736 23.3296 1.13257C38.1844 -1.79216 53.2811 5.87731 63.346 16.4728L63.3441 16.4708C63.3547 16.4823 63.3651 16.4943 63.3761 16.5058L63.3729 16.5024C63.3861 16.5172 63.3999 16.532 63.4125 16.5467C63.4093 16.5433 63.4066 16.54 63.4034 16.5366C64.9191 17.9413 65.7144 20.0128 67.196 21.3792L67.1957 21.378C67.2833 21.389 67.3765 21.3594 67.438 21.2965C67.4508 21.3195 67.4624 21.3423 67.4739 21.3656C69.2878 21.1789 74.5821 17.1654 75.2862 19.5588C74.3988 26.0385 73.7491 32.6497 72.3844 39.0463ZM71.0823 36.5031C71.854 31.3105 72.4919 26.0996 73.3143 20.9141C72.1319 21.6442 70.7966 22.0593 69.5046 22.5516C69.5422 22.5378 69.5797 22.5241 69.6167 22.5107C64.7591 25.2379 65.2955 20.2245 62.0601 17.7673C57.5257 12.9619 52.0855 9.02563 46.1048 6.21648C46.1098 6.21912 46.1159 6.22196 46.121 6.22406C32.744 -0.557906 12.4557 1.6913 3.03746 14.043C4.84672 13.1231 6.94896 13.0118 8.89035 12.476C8.88683 12.477 8.88278 12.4779 8.87937 12.4783C19.1016 9.74466 11.1612 16.7875 10.226 21.3862C22.4663 13.5172 39.9785 11.8889 52.8105 19.2249C55.8392 21.3374 59.1869 23.9156 60.8038 27.2716C60.2607 29.192 57.3735 29.2292 55.9916 30.4989C57.9156 31.2355 59.7938 32.105 61.6544 32.991C61.6376 32.9833 61.6214 32.9752 61.6046 32.9675C64.6994 34.4652 67.8947 35.7525 70.9043 37.4236C70.9687 37.117 71.0303 36.811 71.0823 36.5031Z" fill="#FFDB43"/>
</svg>
